<svg xmlns="http://www.w3.org/2000/svg" version="1.1" xmlns:xlink="http://www.w3.org/1999/xlink" xmlns:svgjs="http://svgjs.dev/svgjs" width="432" height="432"><svg id="SvgjsSvg1001" data-name="Layer 1" xmlns="http://www.w3.org/2000/svg" viewBox="0 0 432 432">
  <defs>
    <style>
      .cls-1 {
        fill: #386ab3;
      }

      .cls-1, .cls-2, .cls-3 {
        fill-rule: evenodd;
        stroke-width: 0px;
      }

      .cls-2 {
        fill: #292e88;
      }

      .cls-3 {
        fill: #f28a41;
      }
    </style>
  </defs>
  <path class="cls-2" d="M21.02,314.77c-1.43,1.73-3.17,2.93-4.27,4.72,4.57-1.36,10.51-4.78,17.1-6.34,1.67-1.37,21.15-6,25.04-6.83,29.82-6.34,58.15-6.75,88.7-8.51,20.25-1.17,40.73-2.21,60.88-3.85,18.12-1.48,40.22-3.46,56.21-8.85,25.1-8.46,21.47-20.88,12.23-38.34-14.24-26.91-26.55-45.87-44.61-68.86-9.62-12.25-27.78-32.57-38.85-42.66-24.18-22.01-44.37-39.16-74.13-55.74-12.53-6.98-29.83-15.87-46-18.75-4.22-.75-10.74-1.33-13.79,1.22-3.59,3.01-.33,8.65,1.28,11.71,3.73,7.12,7.1,15.18,9.8,22.96,17.61,50.71,10.03,113.99-13.24,162.15-3.65,7.55-7.1,14.39-11.16,21.22-7.94,13.38-15.45,22.97-25.19,34.75"></path>
  <path class="cls-1" d="M45.98,356.25c1.92-.5,6.43-2.97,8.92-4,40.45-16.76,88.79-15.76,131.99-14.98,41.23.74,107.98-1.12,140.22-21.28,22.43-14.02,16.92-35.08-1.26-49.43-3.38-2.67-11.75-9.28-16.25-10.82,1.28,2.18,3.42,4.52,5.03,6.86,1.59,2.3,3.29,4.94,4.7,7.69,11.9,23.14-5.51,32.56-28.6,37.26-74.16,15.08-168.66-6.73-231.45,37.5-5.35,3.77-9.21,7.04-13.3,11.21"></path>
  <path class="cls-3" d="M343.79,345.35c-4.29,1.79-19.28,3.95-24.79,4.81-45.88,7.17-96.11,6.62-142.49,5.25-19.55-.58-38.39-2.3-58.12-2.37l75.39,11.54c50.23,6.94,149.45,15.08,195.03-7.65,19.13-9.54,20.85-18,23.11-20.13,1.86-5.85,3.76-8.92,3.22-16.8-.27-3.96-2.21-13.03-4.11-15.35-1.89,3.34-2.46,5.63-4.68,8.7-9.45,13.08-26.35,20.94-41.42,26.15-5.56,1.92-15.04,5.02-21.17,5.87"></path>
</svg><style>@media (prefers-color-scheme: light) { :root { filter: none; } }
@media (prefers-color-scheme: dark) { :root { filter: none; } }
</style></svg>